<svg width="100%" height="100%" xmlns="http://www.w3.org/2000/svg"  version="1.1" id="Histogram" x="0px" y="0px" viewBox="0 0 150 150" preserveAspectRatio="none meet">
    <style>
    .vis-graphic--fill-a {
        fill: #00c9ff;
    }

    .vis-graphic--line-a {
        stroke: #00c9ff;
    }

    .vis-graphic--fill-a,
    .vis-graphic--fill-b,
    .vis-graphic--fill-c {
        opacity: .8;
    }

    .vis-graphic--fill-b {
        fill: #ce58eb;
    }

    .vis-graphic--line {
        stroke-width: 1px;
        fill: none;
        stroke-linecap: round;
        stroke-miterlimit: 10;
    }

    .vis-graphic--line-b {
        stroke: #ce58eb;
    }

    .vis-graphic--fill-a,
    .vis-graphic--fill-b,
    .vis-graphic--fill-c {
        opacity: .8;
    }

    .vis-graphic--fill-c {
        fill: #67d74e;
    }

    .vis-graphic--line-c {
        stroke: #67d74e;
    }
    </style>
    <g>
        <rect x="122" y="51" class="vis-graphic--fill vis-graphic--fill-c" width="26" height="24"></rect>
        <rect x="122" y="113" class="vis-graphic--fill vis-graphic--fill-b" width="26" height="13"></rect>
        <rect x="122" y="79" class="vis-graphic--fill vis-graphic--fill-a" width="26" height="30"></rect>
        <rect x="92" y="74" class="vis-graphic--fill vis-graphic--fill-b" width="26" height="52"></rect>
        <rect x="92" y="49" class="vis-graphic--fill vis-graphic--fill-a" width="26" height="21"></rect>
        <rect x="62" y="94" class="vis-graphic--fill vis-graphic--fill-b" width="26" height="32"></rect>
        <rect x="62" y="59" class="vis-graphic--fill vis-graphic--fill-a" width="26" height="31"></rect>
        <rect x="62" y="24" class="vis-graphic--fill vis-graphic--fill-c" width="26" height="31"></rect>
        <rect x="32" y="116" class="vis-graphic--fill vis-graphic--fill-b" width="26" height="10"></rect>
        <rect x="32" y="80" class="vis-graphic--fill vis-graphic--fill-a" width="26" height="32"></rect>
        <rect x="2" y="110" class="vis-graphic--fill vis-graphic--fill-b" width="26" height="16"></rect>
        <rect x="2" y="90" class="vis-graphic--fill vis-graphic--fill-a" width="26" height="16"></rect>
        <rect x="32" y="64" class="vis-graphic--fill vis-graphic--fill-c" width="26" height="12"></rect>
        <rect x="92" y="35" class="vis-graphic--fill vis-graphic--fill-c" width="26" height="10"></rect>
        <rect x="2" y="81" class="vis-graphic--fill vis-graphic--fill-c" width="26" height="5"></rect>
    </g>
    <g>
        <rect x="122" y="51" class="vis-graphic--line vis-graphic--line-c" width="26" height="24"></rect>
        <rect x="122" y="113" class="vis-graphic--line vis-graphic--line-b" width="26" height="13"></rect>
        <rect x="122" y="79" class="vis-graphic--line vis-graphic--line-a" width="26" height="30"></rect>
        <rect x="92" y="74" class="vis-graphic--line vis-graphic--line-b" width="26" height="52"></rect>
        <rect x="92" y="49" class="vis-graphic--line vis-graphic--line-a" width="26" height="21"></rect>
        <rect x="62" y="94" class="vis-graphic--line vis-graphic--line-b" width="26" height="32"></rect>
        <rect x="62" y="59" class="vis-graphic--line vis-graphic--line-a" width="26" height="31"></rect>
        <rect x="62" y="24" class="vis-graphic--line vis-graphic--line-c" width="26" height="31"></rect>
        <rect x="32" y="116" class="vis-graphic--line vis-graphic--line-b" width="26" height="10"></rect>
        <rect x="32" y="80" class="vis-graphic--line vis-graphic--line-a" width="26" height="32"></rect>
        <rect x="2" y="110" class="vis-graphic--line vis-graphic--line-b" width="26" height="16"></rect>
        <rect x="2" y="90" class="vis-graphic--line vis-graphic--line-a" width="26" height="16"></rect>
        <rect x="32" y="64" class="vis-graphic--line vis-graphic--line-c" width="26" height="12"></rect>
        <rect x="92" y="35" class="vis-graphic--line vis-graphic--line-c" width="26" height="10"></rect>
        <rect x="2" y="81" class="vis-graphic--line vis-graphic--line-c" width="26" height="5"></rect>
    </g>
</svg>